<svg width="1000" height="328" viewBox="0 0 1000 328" fill="none" xmlns="http://www.w3.org/2000/svg">
<path d="M384.011 285.637C346.801 261.667 296.302 257.461 214.861 280.056C128.04 300.458 99.0925 313.537 61.0762 287.282C46.4712 274.385 41.235 253.618 45.145 223.706C54.2137 174.943 78.7212 128.017 122.252 75.9647C146.551 48.8872 169.09 25.6497 198.852 16.3184C221.662 10.4647 219.53 28.3909 216.77 30.9547C213.857 30.9547 208.965 31.4134 205.184 33.8809C202.115 36.2609 193.691 43.9459 193.239 54.2834C192.586 70.1084 208.964 66.8147 216.027 58.1259C223.641 48.3347 234.894 29.5847 226.042 12.1097C222.332 5.88967 215.922 1.59092 207.964 0.127166C180.711 -1.43033 155.33 11.5609 131.906 25.9234C80.6787 61.5097 39.7 110.82 16.5125 164.795C3.14372 197.361 -8.94629 244.011 9.17622 281.98C23.195 308.325 52.3 322.318 87.0237 319.392C111.377 316.833 140.826 308.962 160.632 304.21C180.439 299.45 281.825 264.598 315.137 325.255C315.137 325.255 326.215 303.751 353.899 303.292C376.659 301.192 409.492 309.881 433.404 327.442C425.437 315.462 402.853 297.806 384.011 285.637Z" fill="black"/>
<path d="M225.2 82.0932C206.238 69.652 168.125 93.437 137.599 134.236C109.684 170.832 97.63 213.366 110.748 233.035C130.261 256.178 166.486 222.514 181.891 204.496L183.879 202.39C194.355 191.137 202.449 177.597 210.283 164.606C210.283 164.606 217.483 152.713 217.826 152.163C222.276 151.343 227.636 150.062 233.676 148.323C233.59 148.596 210.567 187.293 212.916 206.501C213.647 212.361 213.089 233.767 233.989 240.261C261.844 244.93 284.086 223.337 303.709 204.126C303.709 204.126 307.053 200.927 308.944 199.101C308.465 201.017 307.841 203.573 307.841 203.573C299.686 231.933 310.679 237.883 317.555 240.08C338.336 246.121 363.163 215.93 363.243 215.93C362.599 225.439 360.716 233.307 370.741 239.62C380.204 243.007 389.78 237.843 397.059 232.995C423.278 214.516 444.4 185.595 461.461 160.595H450.579C450.45 160.595 423.725 199.33 406.371 207.748C406.344 207.748 403.186 209.369 401.366 208.087C399.114 206.164 400.003 202.169 401.394 199.34C401.481 199.154 468.398 83.0945 468.398 83.0945H436.803C436.803 83.0945 433.351 88.6782 433.07 89.0445C432.858 88.862 432.351 87.902 432 87.442C412.425 60.3645 368.096 102.014 334.723 150.314C321.874 168.887 305.515 189.798 288.553 204.892C288.553 204.892 263.424 227.927 252.686 211.377C248.761 204.423 249.969 194.257 252.183 187.581C264.684 151.994 286.225 119.698 310.738 100.211C317.658 94.817 325.179 93.257 328.911 95.5445C332.468 97.652 333.041 102.862 330.791 106.431C325.083 106.248 320.509 107.983 316.79 111.826C309.465 119.511 306.92 126.922 309.249 133.876C320.563 149.976 343.126 118.139 342.035 98.7457C341.645 91.792 337.935 85.207 332.399 82.002C324.148 77.0645 311.56 78.3432 303.414 82.2795C292.509 86.3945 275.246 100.756 265.17 111.918C252.485 125.917 230.73 141.467 223.926 139.726C226.155 133.777 244.531 96.1795 225.2 82.0932ZM377.526 137.713C383.673 129.207 401.561 106.427 405.923 102.586C420.59 89.682 426.453 95.3595 426.96 99.382C413.271 123.898 397.115 151.985 381.925 177.235C381.956 177.145 377.171 184.461 377.171 184.461C370.463 194.704 363.708 203.487 352.689 209.616C351.118 210.076 348.528 210.26 346.804 208.975C344.729 207.602 343.91 205.315 344.144 202.935C344.804 195.07 352.813 171.014 377.526 137.713ZM205.645 152.441C205.645 152.441 205.37 153.267 205.234 153.537C205.199 153.537 191.459 175.947 191.459 175.947C183.166 187.018 172.813 200.927 159.87 207.602C156.034 208.883 150.731 209.708 148.029 206.326C142.3 199.463 145.253 189.95 147.651 182.266L148.5 179.521C155.378 160.861 166.29 144.391 176.911 129.113C177.044 129.023 177.341 128.932 177.449 128.932C177.474 129.023 177.516 129.023 177.535 129.207C184.2 142.012 196.698 147.956 206.044 150.704C206.1 150.704 206.16 150.796 206.16 150.979C206.161 151.252 206.009 151.621 205.645 152.441ZM218.662 126.006C218.603 126.188 212.543 140.092 212.543 140.092C211.666 140.823 210.281 140.458 208.694 140.092L205.974 139.632C197.433 136.981 190.99 131.308 189.004 124.539C186.264 111.366 197.518 101.028 202.476 97.2795C207.234 93.9832 214.63 92.2457 218.925 95.632C221.574 98.7432 222.578 102.767 222.578 107.161C222.579 113.106 220.744 119.783 218.662 126.006Z" fill="black"/>
<path d="M618.088 168.449C615.041 161.865 607.809 157.656 600.101 158.112C575.072 160.401 550.591 180.983 537.737 210.53C530.993 225.717 527.311 238.248 524.897 258.191C532.68 249.228 548.555 234.501 566.57 226.449C566.57 226.449 569.021 207.331 581.521 190.314C586.251 183.268 595.717 171.926 606.346 174.943C615.632 178.056 612.369 203.762 600.026 228.639C590.894 246.938 576.919 265.239 562.779 277.861C550.277 288.473 531.781 301.279 515.599 291.401C505.406 285.366 500.208 272.738 501.306 256.454C506.176 210.258 527.205 170.921 557.299 126.096C588.329 84.472 622.534 41.7507 668.613 18.9682C678.011 14.212 686.715 13.1145 694.239 16.042C694.239 16.042 650.984 39.827 630.365 83.8307C625.12 94.9932 617.825 110.083 625.171 123.441C629.01 130.392 635.826 130.942 641.314 130.576C666.588 124.719 682.916 101.118 696.257 79.5307C703.992 63.1557 710.867 46.872 710.867 28.7582C710.867 26.5632 710.754 23.637 710.567 21.4395C722.642 15.0382 747.403 26.3795 747.403 26.3795C766.751 32.7857 807.95 64.3482 821.848 70.3832C828.626 62.517 839.766 50.6257 846.039 44.6782L836.959 39.097C822.421 30.2232 807.055 21.8057 791.93 13.482C757.581 -5.26927 729.623 1.31574 715.393 6.43949C709.8 8.45074 704.689 10.1895 704.689 10.1895C694.129 -1.33676 676.81 -0.241765 664.049 2.87074C618.156 16.0432 575.548 48.152 529.866 103.866C496.281 147.503 475.449 185.195 464.345 222.426C455.786 247.49 453.185 284.357 474.075 306.222C491.836 324.787 515.387 320.766 532.019 314.089C568.052 296.342 600.439 258.101 616.576 214.098C620.47 201.018 624.793 182.54 618.088 168.449ZM700.945 30.5895C696.175 85.2957 653.651 117.408 643.13 119.966C636.754 121.244 625.874 118.411 635.586 95.452C649.89 64.5282 674.31 38.2757 700.511 24.827C701.149 27.1145 701.132 28.5745 700.945 30.5895Z" fill="black"/>
<path d="M953.194 37.5395C930.32 50.532 906.609 58.9457 877.905 56.0195C869.95 64.987 862.205 74.2257 855.066 83.7382C895.353 93.9845 938.063 71.2057 961.881 49.527C987.079 27.662 1000 0.128235 1000 0.128235C1000 0.128235 981.113 21.7157 953.194 37.5395Z" fill="black"/>
<path d="M503.98 110.596L520.911 83.0957H490.906L473.981 110.596H503.98Z" fill="black"/>
<path d="M877.785 288.183C874.559 290.378 870.026 288.691 871.721 283.661C875.943 270.853 892.725 244.753 892.725 244.753L939.47 161.846H907.45C905.929 164.346 902.674 170.087 902.674 170.087C901.193 167.619 896.763 162.132 894.939 160.947C887.116 156.003 875.639 158.341 867.721 162.822C833.298 182.951 808.181 222.719 788.374 253.733C788.374 253.733 767.523 288.208 755.948 290.772C746.911 291.505 747.844 279.332 748.235 276.496C751.729 256.001 759.843 236.517 768.018 218.861C784.644 207.334 803.619 192.241 820.863 175.683C858.285 139.911 889.834 99.3845 894.445 90.3282C894.445 90.3282 889.454 91.3357 883.56 91.517C854.77 131.677 795.855 190.044 777.994 198.733C785.906 179.702 837.028 88.8632 880.531 45.4107L887.378 38.822C897.963 28.4845 908.931 17.8732 917.479 16.1345C918.381 16.0432 919.544 16.1345 920.548 18.242C920.929 26.2907 917.933 32.2382 914.495 39.007L909.678 48.8882C909.678 48.8882 916.501 47.607 920.983 46.1395C926.183 36.3557 931.941 25.3745 929.819 12.2957C929.11 8.08698 926.064 4.88573 922.083 4.15323C909.105 1.68323 894.961 11.2857 883.581 19.0645L883.121 19.337C824.62 65.1695 775.22 131.219 732.031 221.421C728.901 223.796 716.808 226.634 714.751 225.261C719.016 216.481 724.386 204.677 727.074 191.869C727.539 188.209 727.971 184.461 727.971 180.802C727.971 172.928 726.081 165.521 719.028 160.399C710.758 156.282 700.536 158.204 693.645 161.313C662.773 174.121 639.699 205.776 623.049 231.845C614.094 248.407 605.165 266.146 602.693 286.458C600.951 302.373 604.496 312.62 613.545 317.745C622.851 322.498 634.564 317.557 639.165 315.181C670.441 298.715 692.294 265.692 709.52 235.501C710.205 235.411 719.61 235.138 726.724 233.306C726.819 233.306 726.859 233.306 727.016 233.402C726.609 234.768 722.933 245.749 722.933 245.749C712.015 277.766 706.966 299.541 717.279 312.437C732.015 330.643 756.411 311.8 776.258 286.912C771.998 316.735 787.454 321.402 799.235 319.117C812.769 315.46 827.85 301.002 834.849 293.595C832.601 302.283 833.213 317.837 845.524 319.391C853.963 320.951 860.278 316.361 867.585 312.426C893.796 298.153 925.173 250.595 933.319 236.845H922.638C911.058 254.346 896.321 277.292 877.785 288.183ZM642.513 284.998C640.85 282.528 640.299 279.827 640.244 276.907C639.925 258.969 659.224 226.846 672.846 209.346C672.875 209.346 672.875 209.346 672.875 209.346C678.584 221.846 691.511 229.881 699.315 233.267C689.623 254.858 656.381 301.098 642.513 284.998ZM704.785 223.615C703.861 224.258 687.56 218.767 684.41 203.673C681.738 190.678 690.686 180.525 699.344 175.406C703.06 172.477 708.658 171.473 712.764 172.931C716.575 175.496 717.608 180.073 717.608 185.006C717.608 188.031 717.206 191.138 716.853 193.973C716.853 193.973 716.785 194.525 716.774 194.616C714.058 204.767 709.901 214.74 704.785 223.615ZM835.53 279.236C835.516 279.236 832.438 281.979 832.438 281.979C828.04 285.911 823.515 290.12 818.053 288.014C816.544 287.466 815.483 285.456 815.228 283.896C814.979 272.643 820.046 262.217 824.96 252.064L826.22 249.41C840.355 225.808 856.785 197.998 880.915 178.698C884.981 175.764 889.394 173.299 894.051 175.222C895.123 176.226 896.37 177.966 896.37 179.702C896.37 180.253 895.881 181.716 895.599 182.171C888.86 193.062 882.441 204.496 876.2 215.472C864.003 237.154 851.349 259.564 835.53 279.236Z" fill="black"/>
</svg>
