<svg width="1000" height="357" viewBox="0 0 1000 357" fill="none" xmlns="http://www.w3.org/2000/svg">
<g clip-path="url(#clip0_15_56)">
<path d="M110.307 356.244C80.5116 355.06 56.1341 346.907 37.0729 331.765C33.4352 328.872 24.7668 320.198 21.8586 316.54C14.1291 306.821 8.87397 297.362 5.36887 286.867C-5.41683 254.561 0.134182 212.168 21.2464 165.642C39.3229 125.811 67.2157 86.3057 115.879 31.5915C123.047 23.5404 144.394 -0.00537109 144.532 -0.00537109C144.583 -0.00537109 143.42 2.00992 141.955 4.46402C129.302 25.6578 118.476 50.622 112.578 72.2343C103.103 106.913 104.246 136.673 115.925 159.749C123.981 175.647 137.792 189.418 153.323 197.03C180.511 210.351 220.318 211.454 268.93 200.255C272.277 199.479 438.123 155.454 637.48 102.418C836.837 49.3771 999.975 6.01502 1000 6.05072C1000.06 6.09672 536.838 204.311 296.374 307.142C258.292 323.423 248.108 327.535 230.205 333.821C184.44 349.892 143.445 357.56 110.307 356.244V356.244Z" fill="white"/>
</g>
<defs>
<clipPath id="clip0_15_56">
<rect width="1000" height="356.39" fill="white"/>
</clipPath>
</defs>
</svg>
