<svg width="600" height="166" viewBox="0 0 600 166" fill="none" xmlns="http://www.w3.org/2000/svg">
<g clip-path="url(#clip0_26_2)">
<path d="M169.8 166.13V0H0V166.13H169.8Z" fill="#D62021"/>
<path d="M386.63 166.13V0H216V166.13H386.63Z" fill="#000005"/>
<path d="M600.22 166.13V0H432.43V166.13H600.22Z" fill="#237BBD"/>
<path d="M102.7 128.09V77.74C102.7 70.3133 101.27 64.89 98.41 61.47C95.55 58.05 90.8833 56.34 84.41 56.34C81.0555 56.4295 77.7668 57.2919 74.8 58.86C71.6838 60.3023 68.9451 62.4487 66.8 65.13V128.13H46.45V40.67H61.14L64.89 48.83C70.4367 42.4167 78.63 39.2067 89.47 39.2C99.85 39.2 108.05 42.31 114.07 48.53C120.09 54.75 123.09 63.4167 123.07 74.53V128.09H102.67H102.7Z" fill="white"/>
<path d="M299.7 129.82C313.033 129.82 323.553 125.957 331.26 118.23C338.967 110.503 342.82 99.5033 342.82 85.23C342.82 54.5633 328.883 39.23 301.01 39.23C297.545 39.1391 294.097 39.7346 290.864 40.9824C287.63 42.2301 284.676 44.1053 282.17 46.5V40.67H261.75V151.31H282.17V125.97C287.656 128.578 293.667 129.892 299.74 129.81L299.7 129.82ZM295.17 56.6C304.563 56.6 311.297 58.7033 315.37 62.91C319.443 67.1166 321.467 74.37 321.44 84.67C321.44 94.3367 319.39 101.407 315.29 105.88C311.19 110.353 304.45 112.59 295.07 112.59C290.38 112.662 285.814 111.083 282.17 108.13V62.29C283.835 60.5051 285.847 59.0789 288.082 58.0987C290.317 57.1186 292.729 56.6052 295.17 56.59V56.6Z" fill="white"/>
<path d="M540.31 59.79C536.752 57.5178 532.612 56.3232 528.39 56.35C523.67 56.35 519.487 58.4933 515.84 62.78C512.14 67.1593 510.185 72.7493 510.35 78.48V128.1H489.97V40.67H510.37V49.03C516.05 42.4833 523.603 39.2067 533.03 39.2C539.957 39.2 545.26 40.26 548.94 42.38L540.32 59.84L540.31 59.79Z" fill="white"/>
</g>
<defs>
<clipPath id="clip0_26_2">
<rect width="600" height="166" fill="white"/>
</clipPath>
</defs>
</svg>
