<svg width="80" height="80" viewBox="0 0 80 80" fill="none" xmlns="http://www.w3.org/2000/svg">
<path fill-rule="evenodd" clip-rule="evenodd" d="M79.093 39.546C79.093 17.705 61.387 0 39.547 0C17.705 0 0 17.705 0 39.546C0 61.387 17.705 79.093 39.547 79.093C61.387 79.093 79.093 61.387 79.093 39.546ZM26.06 11.269V22.257H23.686V17.884H20.024V22.257H17.651V11.269H20.024V15.598H23.686V11.269H26.06ZM38.615 34.552L41.759 45.541H44.142L45.966 38.325L47.808 45.541H50.155L53.239 34.552H50.667L49.009 41.727L47.125 34.552H44.818L42.939 41.758L41.249 34.552H38.615ZM38.83 22.91H41.205V33.898H38.83V22.91ZM53.269 68.969C56.372 68.969 58.895 66.439 58.895 63.329C58.895 60.219 56.372 57.689 53.269 57.689C50.176 57.689 47.659 60.218 47.659 63.329C47.658 66.438 50.176 68.969 53.269 68.969ZM53.269 60.033C55.07 60.033 56.536 61.512 56.536 63.329C56.536 65.146 55.07 66.625 53.269 66.625C51.476 66.625 50.017 65.146 50.017 63.329C50.017 61.512 51.476 60.033 53.269 60.033ZM34.718 11.269V13.555H29.89V15.598H33.535V17.884H29.89V19.971H34.718V22.257H27.517V11.269H34.718ZM30.854 26.936L34.947 33.898H37.374V22.91H35V29.641L31.054 22.91H28.481V33.898H30.854V26.936ZM11.508 48.337C11.676 48.578 11.921 48.728 12.192 48.728C12.489 48.728 12.647 48.535 12.646 48.326C12.646 48.0899 12.3739 48.0063 12.069 47.9126L12.015 47.896C11.606 47.771 11.151 47.613 11.151 47.028C11.151 46.54 11.577 46.151 12.165 46.151C12.656 46.151 12.939 46.333 13.183 46.582L12.713 46.957C12.588 46.77 12.407 46.669 12.17 46.669C11.898 46.669 11.752 46.815 11.752 47.007C11.752 47.2257 12.008 47.3099 12.3069 47.4082L12.37 47.429C12.784 47.562 13.252 47.746 13.252 48.331C13.252 48.815 12.867 49.282 12.195 49.282C11.647 49.282 11.24 49.051 10.965 48.74L11.508 48.337ZM14.646 49.241V46.748H15.417V46.193H13.295V46.748H14.065V49.241H14.646ZM68.591 25.196V33.898H66.217V25.196H63.61V22.91H71.198V25.196H68.591ZM48.074 66.537H44.488V57.835H42.115V68.823H48.074V66.537ZM66.216 57.182V52.057L62.689 46.193H65.284L67.411 49.687L69.553 46.193H72.147L68.591 52.057V57.182H66.216ZM54.342 22.91V33.898H56.715V29.525H60.377V33.898H62.75V22.91H60.377V27.239H56.715V22.91H54.342ZM50.726 26.777C50.089 25.636 49.152 25.08 47.86 25.08C45.941 25.08 44.506 26.571 44.505 28.405C44.505 30.3 45.911 31.729 47.933 31.729C49.373 31.729 50.346 31.027 50.766 29.847H47.933V27.605H53.399V28.551C53.399 31.683 51.117 34.044 47.933 34.044C44.567 34.044 42.146 31.619 42.146 28.404C42.146 25.189 44.529 22.764 47.845 22.764C49.925 22.764 51.75 23.766 52.76 25.452L50.726 26.777ZM16.603 44.608C17.258 43.962 17.619 43.191 17.619 42.277C17.619 39.996 15.646 39.263 14.323 38.841C13.186 38.478 12.386 38.202 12.386 37.568C12.386 36.946 12.878 36.56 13.67 36.56C14.399 36.56 15.262 37.005 15.687 37.596L17.502 36.144C16.541 35.134 15.558 34.406 13.655 34.406C11.536 34.406 9.938 35.796 9.938 37.64C9.938 39.876 11.719 40.423 13.165 40.865C14.251 41.196 15.157 41.561 15.157 42.261C15.157 42.927 14.715 43.488 13.742 43.488C12.869 43.488 11.82 42.821 11.285 42.022L9.337 43.579C10.453 44.962 12.029 45.686 13.757 45.686C14.903 45.687 15.887 45.313 16.603 44.608ZM50.028 46.193V57.182H47.664V50.159L44.688 54.254L41.755 50.204V57.182H39.391V46.193H41.671L44.705 50.549L47.763 46.193H50.028ZM51.485 46.193V57.182H53.848V50.204L56.781 54.254L59.758 50.159V57.182H62.122V46.193H59.857L56.799 50.549L53.765 46.193H51.485ZM37.933 66.537H41.52V68.823H35.56V57.835H37.933V66.537ZM21.045 64.45H24.689V62.164H21.045V60.121H25.873V57.835H18.671V68.823H21.045V64.45ZM11.809 13.555H9.742C10.433 12.764 11.154 12.002 11.903 11.269H16.79V13.555H14.183V22.257H11.809V13.555ZM25.064 47.124L26.24 49.241H26.858V46.193H26.277V48.243L25.145 46.193H24.485V49.241H25.064V47.124ZM34.103 53.682C34.103 56.007 32.776 57.327 30.376 57.327C28.71 57.327 27.36 56.541 26.559 54.9L28.651 53.776C29.009 54.671 29.52 55.129 30.363 55.129C31.183 55.129 31.729 54.626 31.729 53.682V46.193H34.103V53.682ZM27.527 66.884H31.761L32.467 68.823H34.95L30.786 57.835H28.501L24.337 68.823H26.82L27.527 66.884ZM29.645 61.073L30.945 64.641H28.345L29.645 61.073ZM33.323 34.406C36.425 34.406 38.949 36.936 38.949 40.046C38.949 43.156 36.425 45.687 33.323 45.687C30.23 45.687 27.712 43.157 27.712 40.046C27.712 36.935 30.229 34.406 33.323 34.406ZM30.094 40.046C30.094 41.863 31.552 43.342 33.346 43.342C35.146 43.342 36.612 41.863 36.612 40.046C36.612 38.229 35.146 36.75 33.346 36.75C31.552 36.75 30.094 38.229 30.094 40.046ZM68.591 66.382V57.835H66.217V64.565L62.334 57.855L62.321 57.834H59.748V68.822H62.122V61.858L66.182 68.776C67.019 68.014 67.821 67.214 68.591 66.382ZM35.56 46.193H37.934V57.181H35.56V46.193ZM18.663 48.168H19.016L19.603 49.241H20.266L19.573 48.035C19.978 47.88 20.163 47.553 20.163 47.173C20.163 46.597 19.741 46.194 19.039 46.194H18.083V49.242H18.663V48.168ZM18.662 46.735H18.972C19.41 46.735 19.577 46.867 19.577 47.173C19.577 47.389 19.422 47.647 18.972 47.647H18.662V46.735ZM27.627 28.404C27.627 31.515 25.104 34.044 22.001 34.044C18.907 34.044 16.391 31.515 16.391 28.404C16.391 25.293 18.907 22.764 22.001 22.764C25.104 22.764 27.627 25.293 27.627 28.404ZM25.268 28.404C25.268 26.588 23.803 25.109 22.001 25.109C20.208 25.109 18.749 26.588 18.749 28.404C18.749 30.221 20.208 31.7 22.001 31.7C23.803 31.7 25.268 30.221 25.268 28.404ZM15.855 48.711H17.024L17.208 49.241H17.814L16.732 46.193H16.147L15.065 49.241H15.671L15.855 48.711ZM16.44 47.02L16.833 48.156H16.048L16.44 47.02ZM14.184 33.898H11.81V25.196H9.202V22.91H16.791V25.196H14.184V33.898ZM22.764 47.173C22.764 46.597 22.342 46.194 21.64 46.194H20.684V49.242H21.264V48.169H21.618L22.204 49.242H22.868L22.175 48.036C22.579 47.88 22.764 47.553 22.764 47.173ZM21.573 47.646H21.263V46.735H21.573C22.011 46.735 22.178 46.867 22.178 47.173C22.179 47.389 22.024 47.646 21.573 47.646ZM23.308 46.193H23.887V49.241H23.308V46.193ZM28.88 46.715C29.276 46.715 29.565 46.895 29.753 47.241L30.253 46.916C29.991 46.465 29.503 46.151 28.876 46.151C27.974 46.151 27.318 46.848 27.318 47.716C27.318 48.56 27.949 49.281 28.9 49.281C29.807 49.281 30.391 48.576 30.391 47.758V47.525H28.9V48.08H29.765C29.657 48.469 29.343 48.72 28.9 48.72C28.315 48.72 27.894 48.277 27.894 47.717C27.895 47.17 28.324 46.715 28.88 46.715ZM26.858 45.541H24.485V41.167H20.823V45.541H18.45V34.552H20.823V38.881H24.485V34.552H26.858V45.541Z" fill="black"/>
</svg>
